# xmcd
#
# Track frame offsets:
#	150
#	25492
#	46741
#	64605
#	88711
#	111931
#	131260
#	152332
#	178750
#	203661
#
# Disc length: 3037 seconds
#
# Revision: 2
# Processed by: cddbd v1.4PL0 Copyright (c) Steve Scherf et al.
# Submitted via: EZCDDA 4.3.2
#
DISCID=790bdb0a
DTITLE=The Native American Series - Sedona Sunset
DYEAR=2001
DGENRE=Native American
TTITLE0=Winged Processional
TTITLE1=Bird and Man's Council
TTITLE2=Dove's Dance
TTITLE3=Summoning Winds
TTITLE4=Butterfly Woman
TTITLE5=Dancing Gods
TTITLE6=Road Opener
TTITLE7=Flight of Beauty
TTITLE8=Conferring Power
TTITLE9=Ancient Dreams/Ancient Dreamers
EXTD=YEAR: 2001 ID3G: 64
EXTT0=
EXTT1=
EXTT2=
EXTT3=
EXTT4=
EXTT5=
EXTT6=
EXTT7=
EXTT8=
EXTT9=
PLAYORDER=
